<?xml version="1.0" encoding="utf-8"?>
<!-- Generator: Adobe Illustrator 23.0.2, SVG Export Plug-In . SVG Version: 6.00 Build 0)  -->
<svg version="1.1" id="Layer_1" xmlns="http://www.w3.org/2000/svg" xmlns:xlink="http://www.w3.org/1999/xlink" x="0px" y="0px"
	 viewBox="0 0 169 48" style="enable-background:new 0 0 169 48;" xml:space="preserve">
<style type="text/css">
	.st0{fill:#131313;}
	.st1{fill:#F9A534;}
	.st2{font-family:'TitilliumWeb-Bold';}
	.st3{font-size:9.7802px;}
</style>
<g>
	<g>
		<g>
			<path class="st0" d="M157.6,25.8C157.6,25.8,157.6,25.8,157.6,25.8c-0.6,0-1.2-0.3-1.6-0.7l-7.4-7.2c-1-1-1-2.5,0-3.5l7.5-7.3
				c0.4-0.4,1-0.7,1.6-0.7c0,0,0,0,0,0c0.9-0.1,1.6-0.8,1.7-1.7c0.1-1.1-0.9-2-2-2c-0.9,0.1-1.7,0.8-1.8,1.7c0,0,0,0.1,0,0.1
				c0,0.6-0.3,1.2-0.7,1.7l-7.4,7.2c-1,1-2.6,1-3.6,0l-7.4-7.2c-0.5-0.4-0.7-1-0.7-1.7c0,0,0-0.1,0-0.1c-0.1-0.9-0.8-1.6-1.8-1.7
				c-1.1-0.1-2.1,0.8-2,2c0.1,0.9,0.8,1.6,1.7,1.7c0,0,0,0,0,0c0.6,0.1,1.2,0.3,1.6,0.7l7.5,7.3c1,1,1,2.5,0,3.5l-7.4,7.2
				c-0.4,0.4-1,0.7-1.6,0.7c0,0,0,0,0,0c-0.9,0.1-1.7,0.8-1.7,1.7c-0.1,1.1,0.9,2,2,2c0.9-0.1,1.7-0.8,1.8-1.6c0,0,0-0.1,0-0.1
				c0-0.6,0.3-1.2,0.7-1.6l7.4-7.2c1-1,2.6-1,3.6,0l7.4,7.2c0.4,0.4,0.7,1,0.7,1.6c0,0,0,0.1,0,0.1c0.1,0.9,0.9,1.6,1.8,1.6
				c1.1,0.1,2.1-0.9,2-2C159.3,26.6,158.6,25.9,157.6,25.8z"/>
			<path class="st0" d="M157.6,20c0,0-0.1,0-0.1,0c-0.7,0-1.4-0.2-1.9-0.7l-1.3-1.2c-0.5-0.5-0.8-1.2-0.7-1.9c0,0,0-0.1,0-0.1
				c0-0.1,0-0.1,0-0.2c-0.1-0.7,0.2-1.4,0.7-1.9l1.1-1.1c0.5-0.5,1.3-0.8,2-0.7c0.1,0,0.2,0,0.3,0c0.9-0.1,1.7-0.8,1.8-1.7
				c0.1-1.1-0.9-2-2-2c-0.9,0.1-1.7,0.8-1.8,1.7c0,0.1,0,0.1,0,0.2c0,0.7-0.2,1.4-0.7,1.8l-1.3,1.3c-0.5,0.5-1.2,0.8-1.9,0.7
				c0,0-0.1,0-0.1,0c-1,0-1.9,0.9-1.9,1.9c0,1,0.9,1.8,1.9,1.8c0,0,0.1,0,0.1,0c0.7,0,1.4,0.2,2,0.7l1.2,1.2
				c0.5,0.5,0.8,1.2,0.7,1.9c0,0,0,0.1,0,0.1c0,1,0.9,1.9,1.9,1.8c1,0,1.8-0.8,1.9-1.8C159.5,20.9,158.7,20,157.6,20z"/>
			<path class="st0" d="M133.9,12.1c0,0,0.1,0,0.1,0c0.7,0,1.4,0.2,1.9,0.7l1.3,1.2c0.5,0.5,0.8,1.2,0.7,1.9c0,0,0,0.1,0,0.1
				c0,0.1,0,0.1,0,0.2c0.1,0.7-0.2,1.4-0.7,1.9l-1.1,1.1c-0.5,0.5-1.3,0.8-2,0.7c-0.1,0-0.2,0-0.3,0c-0.9,0.1-1.7,0.8-1.8,1.7
				c-0.1,1.1,0.9,2,2,2c0.9-0.1,1.7-0.8,1.8-1.7c0-0.1,0-0.1,0-0.2c0-0.7,0.2-1.4,0.7-1.8l1.3-1.3c0.5-0.5,1.2-0.8,1.9-0.7
				c0,0,0.1,0,0.1,0c1,0,1.9-0.9,1.9-1.9c0-1-0.9-1.8-1.9-1.8c0,0-0.1,0-0.1,0c-0.7,0-1.4-0.2-2-0.7l-1.2-1.2
				c-0.5-0.5-0.8-1.2-0.7-1.9c0,0,0-0.1,0-0.1c0-1-0.9-1.9-1.9-1.8c-1,0-1.8,0.8-1.9,1.8C132,11.3,132.8,12.1,133.9,12.1z"/>
			<path class="st0" d="M141.7,27.7c0,0,0-0.1,0-0.1c0-0.7,0.2-1.4,0.7-1.9l1.3-1.2c0.5-0.5,1.2-0.8,1.9-0.7c0,0,0.1,0,0.1,0
				c0.1,0,0.1,0,0.2,0c0.7-0.1,1.4,0.2,2,0.7l1.1,1.1c0.5,0.5,0.8,1.2,0.7,1.9c0,0.1,0,0.2,0,0.3c0.1,0.9,0.8,1.7,1.8,1.7
				c1.1,0.1,2.1-0.8,2-2c-0.1-0.9-0.8-1.7-1.7-1.7c-0.1,0-0.1,0-0.2,0c-0.7,0-1.4-0.2-1.9-0.7l-1.3-1.3c-0.5-0.5-0.8-1.2-0.7-1.9
				c0,0,0-0.1,0-0.1c0-1-0.9-1.8-1.9-1.8c-1,0-1.9,0.8-1.9,1.9c0,0,0,0.1,0,0.1c0.1,0.7-0.2,1.4-0.7,1.9l-1.2,1.2
				c-0.5,0.5-1.2,0.8-2,0.7c0,0-0.1,0-0.1,0c-1.1,0-1.9,0.9-1.9,1.9c0,1,0.8,1.8,1.9,1.8C140.8,29.5,141.7,28.7,141.7,27.7z"/>
			<path class="st0" d="M149.8,4.4c0,0,0,0.1,0,0.1c0,0.7-0.2,1.4-0.7,1.9l-1.3,1.2c-0.5,0.5-1.2,0.8-1.9,0.7c0,0-0.1,0-0.1,0
				c-0.1,0-0.1,0-0.2,0c-0.7,0.1-1.4-0.2-2-0.7l-1.1-1.1c-0.5-0.5-0.8-1.2-0.7-1.9c0-0.1,0-0.2,0-0.3c-0.1-0.9-0.8-1.7-1.8-1.7
				c-1.1-0.1-2.1,0.8-2,2c0.1,0.9,0.8,1.7,1.7,1.7c0.1,0,0.1,0,0.2,0c0.7,0,1.4,0.2,1.9,0.7l1.3,1.3c0.5,0.5,0.8,1.2,0.7,1.9
				c0,0,0,0.1,0,0.1c0,1,0.9,1.8,1.9,1.8c1,0,1.9-0.8,1.9-1.9c0,0,0-0.1,0-0.1c-0.1-0.7,0.2-1.4,0.7-1.9l1.2-1.2
				c0.5-0.5,1.2-0.8,2-0.7c0,0,0.1,0,0.1,0c1.1,0,1.9-0.9,1.9-1.9c0-1-0.8-1.8-1.9-1.8C150.7,2.6,149.8,3.4,149.8,4.4z"/>
		</g>
		<g>
			<path class="st0" d="M29.3,10h-3c0-2.1-0.4-3.5-1.1-4c-0.7-0.6-2.4-0.9-5.1-0.9c-3.2,0-5.2,0.3-6.2,0.8c-0.9,0.5-1.4,1.8-1.4,3.7
				c0,2.1,0.4,3.4,1.1,3.9c0.7,0.5,2.9,0.8,6.5,0.9c4.2,0.2,6.9,0.7,8,1.6c1.1,0.9,1.7,2.8,1.7,5.8c0,3.2-0.7,5.3-2,6.3
				c-1.3,1-4.2,1.4-8.7,1.4c-3.9,0-6.5-0.5-7.7-1.4c-1.3-1-1.9-2.9-1.9-5.8l0-1.2h3v0.7c0,2.4,0.4,3.8,1.1,4.4
				c0.7,0.6,2.6,0.9,5.7,0.9c3.5,0,5.6-0.3,6.4-0.9c0.8-0.6,1.2-2.1,1.2-4.6c0-1.6-0.3-2.7-0.8-3.2c-0.5-0.5-1.7-0.9-3.4-1l-3.2-0.2
				l-3-0.2c-4.6-0.3-6.9-2.6-6.9-7c0-3,0.7-5,2-6s4-1.5,8-1.5c4,0,6.7,0.5,7.9,1.4S29.3,7,29.3,10z"/>
			<path class="st0" d="M42.9,5.6v23.6h-3V5.6h-8.8V2.9h20.5v2.8H42.9z"/>
			<path class="st0" d="M70.9,23.7H57.2l-2.1,5.6h-3.2l9.9-26.4h4.3l10.1,26.4h-3.2L70.9,23.7z M70,21.4L64,5.3l-5.9,16.1H70z"/>
			<path class="st0" d="M96.6,20.4h3v1c0,3.6-0.6,5.8-1.9,6.7c-1.3,0.9-4.4,1.3-9.4,1.3c-4.5,0-7.4-0.8-8.6-2.4
				c-1.2-1.6-1.8-5.3-1.8-11.1c0-4.6,0.1-7.4,0.4-8.6c0.3-1.2,1.1-2.2,2.4-3.2c1.5-1.1,4.8-1.6,9.9-1.6c3.4,0,5.7,0.5,6.9,1.6
				c1.2,1,1.8,3.1,1.8,6l0,0.7h-3l0-0.8c0-2.1-0.4-3.5-1.1-4.1c-0.7-0.6-2.3-0.9-4.8-0.9c-4.3,0-7,0.4-8,1.1c-1,0.7-1.4,2.7-1.4,5.9
				c0,7.4,0.3,11.7,1,13c0.6,1.3,2.8,1.9,6.6,1.9c3.6,0,5.8-0.3,6.7-0.8c0.9-0.6,1.3-1.9,1.3-4.2L96.6,20.4z"/>
			<path class="st0" d="M106.1,2.9v11.5h2.7l11.1-11.5h3.9l-12.3,12.7l13.8,13.7H121l-12.3-12.3h-2.7v12.3h-3V2.9H106.1z"/>
		</g>
	</g>
	<path class="st1" d="M156.8,46.6H12.2c-1.5,0-2.7-1.2-2.7-2.7v-5.7c0-1.5,1.2-2.7,2.7-2.7h144.7c1.5,0,2.7,1.2,2.7,2.7V44
		C159.5,45.4,158.3,46.6,156.8,46.6z"/>
	<text transform="matrix(1.0225 0 0 1 120.75 44.5742)" class="st2 st3">Cloud</text>
</g>
</svg>
