<?xml version="1.0" encoding="utf-8"?>
<!-- Generator: Adobe Illustrator 23.0.2, SVG Export Plug-In . SVG Version: 6.00 Build 0)  -->
<svg version="1.1" id="Layer_1" xmlns="http://www.w3.org/2000/svg" xmlns:xlink="http://www.w3.org/1999/xlink" x="0px" y="0px"
	 viewBox="0 0 169 48" style="enable-background:new 0 0 169 48;" xml:space="preserve">
<style type="text/css">
	.st0{fill:#1C1C1C;}
	.st1{fill:#F9A534;}
</style>
<g>
	<g>
		<g>
			<path class="st0" d="M158.6,25.7C158.6,25.7,158.6,25.7,158.6,25.7c-0.6,0-1.2-0.3-1.6-0.7l-7.4-7.4c-1-1-1-2.6,0-3.6l7.5-7.5
				c0.4-0.4,1-0.7,1.6-0.7c0,0,0,0,0,0c0.9-0.1,1.6-0.9,1.7-1.8c0.1-1.1-0.9-2.1-2-2c-0.9,0.1-1.7,0.8-1.8,1.7c0,0,0,0.1,0,0.1
				c0,0.6-0.3,1.3-0.7,1.7l-7.3,7.3c-1,1-2.6,1-3.6,0l-7.3-7.3c-0.5-0.5-0.7-1.1-0.7-1.7c0,0,0-0.1,0-0.1C136.7,2.8,136,2.1,135,2
				c-1.1-0.1-2.1,0.9-2,2c0.1,0.9,0.8,1.7,1.7,1.8c0,0,0,0,0,0c0.6,0.1,1.2,0.3,1.6,0.7l7.5,7.5c1,1,1,2.6,0,3.6l-7.4,7.4
				c-0.4,0.4-1,0.7-1.6,0.7c0,0,0,0,0,0c-0.9,0.1-1.7,0.8-1.7,1.8c-0.1,1.1,0.9,2.1,2,2c0.9-0.1,1.7-0.8,1.8-1.7c0,0,0-0.1,0-0.1
				c0-0.6,0.3-1.2,0.7-1.7l7.4-7.4c1-1,2.6-1,3.6,0l7.4,7.4c0.4,0.4,0.7,1.1,0.7,1.7c0,0,0,0.1,0,0.1c0.1,0.9,0.9,1.6,1.8,1.7
				c1.1,0.1,2.1-0.9,2-2C160.3,26.5,159.6,25.8,158.6,25.7z"/>
			<path class="st0" d="M158.6,19.8c0,0-0.1,0-0.1,0c-0.7,0-1.4-0.2-1.9-0.7l-1.3-1.3c-0.5-0.5-0.8-1.2-0.7-1.9c0,0,0-0.1,0-0.1
				c0-0.1,0-0.1,0-0.2c-0.1-0.7,0.2-1.4,0.7-2l1.1-1.1c0.5-0.5,1.3-0.8,2-0.7c0.1,0,0.2,0,0.3,0c0.9-0.1,1.7-0.8,1.8-1.8
				c0.1-1.1-0.9-2.1-2-2c-0.9,0.1-1.7,0.8-1.8,1.7c0,0.1,0,0.1,0,0.2c0,0.7-0.2,1.4-0.7,1.9l-1.3,1.3c-0.5,0.5-1.2,0.8-1.9,0.7
				c0,0-0.1,0-0.1,0c-1,0-1.9,0.9-1.9,1.9c0,1,0.9,1.9,1.9,1.9c0,0,0.1,0,0.1,0c0.7-0.1,1.4,0.2,2,0.7l1.2,1.2
				c0.5,0.5,0.8,1.2,0.7,2c0,0,0,0.1,0,0.1c0,1.1,0.9,1.9,1.9,1.9c1,0,1.8-0.8,1.9-1.9C160.5,20.6,159.6,19.8,158.6,19.8z"/>
			<path class="st0" d="M134.9,11.7c0,0,0.1,0,0.1,0c0.7,0,1.4,0.2,1.9,0.7l1.3,1.3c0.5,0.5,0.8,1.2,0.7,1.9c0,0,0,0.1,0,0.1
				c0,0.1,0,0.1,0,0.2c0.1,0.7-0.2,1.4-0.7,2l-1.1,1.1c-0.5,0.5-1.3,0.8-2,0.7c-0.1,0-0.2,0-0.3,0c-0.9,0.1-1.7,0.8-1.8,1.8
				c-0.1,1.1,0.9,2.1,2,2c0.9-0.1,1.7-0.8,1.8-1.7c0-0.1,0-0.1,0-0.2c0-0.7,0.2-1.4,0.7-1.9l1.3-1.3c0.5-0.5,1.2-0.8,1.9-0.7
				c0,0,0.1,0,0.1,0c1,0,1.9-0.9,1.9-1.9c0-1-0.9-1.9-1.9-1.9c0,0-0.1,0-0.1,0c-0.7,0.1-1.4-0.2-2-0.7l-1.2-1.2
				c-0.5-0.5-0.8-1.2-0.7-2c0,0,0-0.1,0-0.1c0-1.1-0.9-1.9-1.9-1.9c-1,0-1.8,0.8-1.9,1.9C133,10.8,133.8,11.7,134.9,11.7z"/>
			<path class="st0" d="M142.7,27.6c0,0,0-0.1,0-0.1c0-0.7,0.2-1.4,0.7-1.9l1.3-1.3c0.5-0.5,1.2-0.8,1.9-0.7c0,0,0.1,0,0.1,0
				c0.1,0,0.1,0,0.2,0c0.7-0.1,1.4,0.2,2,0.7l1.1,1.1c0.5,0.5,0.8,1.3,0.7,2c0,0.1,0,0.2,0,0.3c0.1,0.9,0.8,1.7,1.8,1.8
				c1.1,0.1,2.1-0.9,2-2c-0.1-0.9-0.8-1.7-1.7-1.8c-0.1,0-0.1,0-0.2,0c-0.7,0-1.4-0.2-1.9-0.7l-1.3-1.3c-0.5-0.5-0.8-1.2-0.7-1.9
				c0,0,0-0.1,0-0.1c0-1-0.9-1.9-1.9-1.9c-1,0-1.9,0.9-1.9,1.9c0,0,0,0.1,0,0.1c0.1,0.7-0.2,1.4-0.7,2l-1.2,1.2
				c-0.5,0.5-1.2,0.8-2,0.7c0,0-0.1,0-0.1,0c-1.1,0-1.9,0.9-1.9,1.9c0,1,0.8,1.8,1.9,1.9C141.8,29.5,142.7,28.7,142.7,27.6z"/>
			<path class="st0" d="M150.7,3.9c0,0,0,0.1,0,0.1c0,0.7-0.2,1.4-0.7,1.9l-1.3,1.3c-0.5,0.5-1.2,0.8-1.9,0.7c0,0-0.1,0-0.1,0
				c-0.1,0-0.1,0-0.2,0c-0.7,0.1-1.4-0.2-2-0.7l-1.1-1.1c-0.5-0.5-0.8-1.3-0.7-2c0-0.1,0-0.2,0-0.3c-0.1-0.9-0.8-1.7-1.8-1.8
				c-1.1-0.1-2.1,0.9-2,2c0.1,0.9,0.8,1.7,1.7,1.8c0.1,0,0.1,0,0.2,0c0.7,0,1.4,0.2,1.9,0.7l1.3,1.3c0.5,0.5,0.8,1.2,0.7,1.9
				c0,0,0,0.1,0,0.1c0,1,0.9,1.9,1.9,1.9c1,0,1.9-0.9,1.9-1.9c0,0,0-0.1,0-0.1c-0.1-0.7,0.2-1.4,0.7-2l1.2-1.2
				c0.5-0.5,1.2-0.8,2-0.7c0,0,0.1,0,0.1,0c1.1,0,1.9-0.9,1.9-1.9c0-1-0.8-1.8-1.9-1.9C151.6,2,150.8,2.8,150.7,3.9z"/>
		</g>
		<g>
			<path class="st0" d="M30.4,9.6h-3c0-2.2-0.4-3.5-1.1-4.1c-0.7-0.6-2.4-0.9-5.1-0.9c-3.2,0-5.2,0.3-6.2,0.8
				c-0.9,0.6-1.4,1.8-1.4,3.7c0,2.2,0.4,3.5,1.1,4c0.7,0.5,2.9,0.8,6.5,1c4.2,0.2,6.9,0.7,8,1.6c1.1,0.9,1.7,2.9,1.7,5.9
				c0,3.3-0.7,5.5-2,6.4c-1.3,1-4.2,1.5-8.7,1.5c-3.9,0-6.5-0.5-7.7-1.5c-1.3-1-1.9-3-1.9-5.9l0-1.2h3v0.7c0,2.4,0.4,3.9,1.1,4.5
				c0.7,0.6,2.6,0.9,5.7,0.9c3.5,0,5.6-0.3,6.4-0.9c0.8-0.6,1.2-2.1,1.2-4.7c0-1.6-0.3-2.7-0.8-3.3c-0.5-0.5-1.7-0.9-3.4-1l-3.2-0.2
				l-3-0.2c-4.6-0.3-6.8-2.7-6.8-7.1c0-3.1,0.7-5.1,2-6.1s4-1.5,8-1.5c4,0,6.7,0.5,7.9,1.4S30.4,6.4,30.4,9.6z"/>
			<path class="st0" d="M43.9,5.1v24.1h-3V5.1h-8.8V2.3h20.5v2.8H43.9z"/>
			<path class="st0" d="M71.9,23.5H58.2l-2.1,5.7h-3.2l9.9-26.9h4.3l10.1,26.9H74L71.9,23.5z M71,21.2L65,4.8l-5.9,16.5H71z"/>
			<path class="st0" d="M97.6,20.2h3v1c0,3.7-0.6,6-1.9,6.9c-1.3,0.9-4.4,1.4-9.4,1.4c-4.5,0-7.4-0.8-8.6-2.4
				c-1.2-1.6-1.8-5.4-1.8-11.4c0-4.7,0.1-7.6,0.4-8.8c0.3-1.2,1.1-2.3,2.4-3.2C83.1,2.6,86.4,2,91.5,2c3.4,0,5.7,0.5,6.9,1.6
				c1.2,1.1,1.8,3.1,1.8,6.2l0,0.7h-3l0-0.8c0-2.2-0.4-3.6-1.1-4.2c-0.7-0.6-2.3-0.9-4.8-0.9c-4.3,0-7,0.4-8,1.1
				c-1,0.7-1.4,2.7-1.4,6c0,7.6,0.3,12,1,13.3c0.6,1.3,2.8,2,6.6,2c3.6,0,5.8-0.3,6.7-0.8c0.9-0.6,1.3-2,1.3-4.3L97.6,20.2z"/>
			<path class="st0" d="M107.1,2.3V14h2.7l11.1-11.8h3.9l-12.3,13l13.8,14H122l-12.3-12.6h-2.7v12.6h-3V2.3H107.1z"/>
		</g>
	</g>
	<path class="st1" d="M157.8,47H13.2c-1.5,0-2.7-1.2-2.7-2.7v-5.9c0-1.5,1.2-2.7,2.7-2.7h144.7c1.5,0,2.7,1.2,2.7,2.7v5.9
		C160.5,45.8,159.3,47,157.8,47z"/>
	<g>
		<path d="M126.8,44.8c-0.7,0.2-1.3,0.2-1.9,0.2s-1-0.1-1.4-0.2s-0.6-0.4-0.8-0.7c-0.2-0.3-0.3-0.7-0.4-1.1
			c-0.1-0.4-0.1-0.9-0.1-1.6c0-1.3,0.2-2.2,0.6-2.7c0.4-0.5,1.1-0.8,2-0.8c0.6,0,1.2,0.1,2,0.3l0,1.1c-0.7-0.1-1.2-0.1-1.6-0.1
			s-0.7,0.1-0.9,0.2c-0.2,0.1-0.3,0.3-0.4,0.7c-0.1,0.3-0.1,0.9-0.1,1.7c0,0.8,0.1,1.3,0.3,1.6c0.2,0.3,0.6,0.5,1.1,0.5
			c0.6,0,1.1,0,1.8-0.1L126.8,44.8z"/>
		<path d="M132.9,44.9H129v-6.8h1.4v5.6h2.5V44.9z"/>
		<path d="M139.5,44.2c-0.4,0.6-1.2,0.8-2.2,0.8s-1.8-0.3-2.2-0.8s-0.6-1.4-0.6-2.6c0-1.2,0.2-2.1,0.6-2.7c0.4-0.6,1.2-0.9,2.2-0.9
			s1.8,0.3,2.2,0.9c0.4,0.6,0.6,1.5,0.6,2.7C140.1,42.7,139.9,43.6,139.5,44.2z M136.2,43.3c0.2,0.3,0.6,0.5,1.1,0.5
			s0.9-0.2,1.1-0.5c0.2-0.3,0.3-0.9,0.3-1.8s-0.1-1.4-0.3-1.8c-0.2-0.4-0.6-0.6-1.1-0.6s-0.9,0.2-1.1,0.6c-0.2,0.4-0.3,1-0.3,1.8
			S136,42.9,136.2,43.3z"/>
		<path d="M143.7,42.6c0,0.8,0.4,1.2,1.2,1.2s1.2-0.4,1.2-1.2v-4.5h1.4v4.5c0,0.8-0.2,1.4-0.6,1.8c-0.4,0.4-1.1,0.6-1.9,0.6
			c-0.9,0-1.5-0.2-1.9-0.6s-0.6-1-0.6-1.8v-4.5h1.4V42.6z"/>
		<path d="M152.3,44.9H150v-6.8h2.3c0.6,0,1.1,0.1,1.4,0.2c0.4,0.1,0.7,0.3,0.9,0.6c0.2,0.3,0.4,0.6,0.4,1c0.1,0.4,0.1,0.9,0.1,1.5
			s0,1.1-0.1,1.5s-0.2,0.8-0.4,1.1c-0.2,0.3-0.5,0.5-0.9,0.7S152.9,44.9,152.3,44.9z M153.8,42.2c0-0.2,0-0.5,0-0.9
			c0-0.4,0-0.7,0-0.9c0-0.2-0.1-0.4-0.2-0.6c-0.1-0.2-0.2-0.3-0.4-0.4c-0.2-0.1-0.5-0.1-0.8-0.1h-0.9v4.4h0.9c0.5,0,0.9-0.1,1.1-0.4
			C153.6,43.1,153.7,42.7,153.8,42.2z"/>
	</g>
</g>
</svg>
