<?xml version="1.0" encoding="utf-8"?>
<!-- Generator: Adobe Illustrator 23.0.2, SVG Export Plug-In . SVG Version: 6.00 Build 0)  -->
<svg version="1.1" id="Layer_1" xmlns="http://www.w3.org/2000/svg" xmlns:xlink="http://www.w3.org/1999/xlink" x="0px" y="0px"
	 viewBox="0 0 169 48" style="enable-background:new 0 0 169 48;" xml:space="preserve">
<style type="text/css">
	.st0{fill:#191919;}
	.st1{fill:#F9A534;}
	.st2{font-family:'TitilliumWeb-Bold';}
	.st3{font-size:9.7803px;}
</style>
<g>
	<g>
		<g>
			<path class="st0" d="M157,25.2C157,25.2,157,25.2,157,25.2c-0.6,0-1.2-0.3-1.6-0.7l-7.2-7.2c-1-1-1-2.5,0-3.5l7.3-7.3
				c0.4-0.4,1-0.7,1.5-0.7c0,0,0,0,0,0c0.9-0.1,1.6-0.8,1.6-1.7c0.1-1.1-0.9-2-2-2c-0.9,0.1-1.6,0.8-1.7,1.7c0,0,0,0.1,0,0.1
				c0,0.6-0.3,1.2-0.7,1.7l-7.2,7.2c-1,1-2.5,1-3.5,0l-7.2-7.2c-0.4-0.4-0.7-1-0.7-1.7c0,0,0-0.1,0-0.1c-0.1-0.9-0.8-1.6-1.7-1.7
				c-1.1-0.1-2,0.8-2,2c0.1,0.9,0.8,1.6,1.6,1.7c0,0,0,0,0,0c0.6,0.1,1.1,0.3,1.5,0.7l7.3,7.3c1,1,1,2.5,0,3.5l-7.2,7.2
				c-0.4,0.4-1,0.7-1.6,0.7c0,0,0,0,0,0c-0.9,0.1-1.6,0.8-1.7,1.7c-0.1,1.1,0.8,2,2,2c0.9-0.1,1.6-0.8,1.7-1.6c0,0,0-0.1,0-0.1
				c0-0.6,0.3-1.2,0.7-1.6l7.2-7.2c1-1,2.5-1,3.5,0l7.2,7.2c0.4,0.4,0.7,1,0.7,1.6c0,0,0,0.1,0,0.1c0.1,0.9,0.8,1.6,1.7,1.6
				c1.1,0.1,2-0.9,2-2C158.7,26,157.9,25.3,157,25.2z"/>
			<path class="st0" d="M157,19.4c0,0-0.1,0-0.1,0c-0.7,0-1.4-0.2-1.9-0.7l-1.2-1.2c-0.5-0.5-0.8-1.2-0.7-1.9c0,0,0-0.1,0-0.1
				c0-0.1,0-0.1,0-0.2c-0.1-0.7,0.2-1.4,0.7-1.9l1.1-1.1c0.5-0.5,1.2-0.8,1.9-0.7c0.1,0,0.2,0,0.3,0c0.9-0.1,1.7-0.8,1.7-1.7
				c0.1-1.1-0.8-2-2-2c-0.9,0.1-1.7,0.8-1.7,1.7c0,0.1,0,0.1,0,0.2c0,0.7-0.2,1.4-0.7,1.8l-1.3,1.3c-0.5,0.5-1.2,0.8-1.9,0.7
				c0,0-0.1,0-0.1,0c-1,0-1.8,0.9-1.8,1.9c0,1,0.8,1.8,1.9,1.8c0,0,0.1,0,0.1,0c0.7,0,1.4,0.2,1.9,0.7l1.2,1.2
				c0.5,0.5,0.8,1.2,0.7,1.9c0,0,0,0.1,0,0.1c0,1,0.9,1.9,1.9,1.8c1,0,1.8-0.8,1.8-1.8C158.9,20.2,158,19.4,157,19.4z"/>
			<path class="st0" d="M133.8,11.5c0,0,0.1,0,0.1,0c0.7,0,1.4,0.2,1.9,0.7l1.2,1.2c0.5,0.5,0.8,1.2,0.7,1.9c0,0,0,0.1,0,0.1
				c0,0.1,0,0.1,0,0.2c0.1,0.7-0.2,1.4-0.7,1.9l-1.1,1.1c-0.5,0.5-1.2,0.8-1.9,0.7c-0.1,0-0.2,0-0.3,0c-0.9,0.1-1.7,0.8-1.7,1.7
				c-0.1,1.1,0.8,2,2,2c0.9-0.1,1.7-0.8,1.7-1.7c0-0.1,0-0.1,0-0.2c0-0.7,0.2-1.4,0.7-1.8l1.3-1.3c0.5-0.5,1.2-0.8,1.9-0.7
				c0,0,0.1,0,0.1,0c1,0,1.8-0.9,1.8-1.9c0-1-0.8-1.8-1.9-1.8c0,0-0.1,0-0.1,0c-0.7,0-1.4-0.2-1.9-0.7l-1.2-1.2
				c-0.5-0.5-0.8-1.2-0.7-1.9c0,0,0-0.1,0-0.1c0-1-0.9-1.9-1.9-1.8c-1,0-1.8,0.8-1.8,1.8C131.9,10.6,132.8,11.5,133.8,11.5z"/>
			<path class="st0" d="M141.5,27c0,0,0-0.1,0-0.1c0-0.7,0.2-1.4,0.7-1.9l1.2-1.2c0.5-0.5,1.2-0.8,1.9-0.7c0,0,0.1,0,0.1,0
				c0.1,0,0.1,0,0.2,0c0.7-0.1,1.4,0.2,1.9,0.7l1.1,1.1c0.5,0.5,0.8,1.2,0.7,1.9c0,0.1,0,0.2,0,0.3c0.1,0.9,0.8,1.7,1.7,1.7
				c1.1,0.1,2-0.8,2-2c-0.1-0.9-0.8-1.7-1.7-1.7c-0.1,0-0.1,0-0.2,0c-0.7,0-1.4-0.2-1.8-0.7l-1.3-1.3c-0.5-0.5-0.8-1.2-0.7-1.9
				c0,0,0-0.1,0-0.1c0-1-0.9-1.8-1.9-1.8c-1,0-1.8,0.8-1.8,1.9c0,0,0,0.1,0,0.1c0,0.7-0.2,1.4-0.7,1.9l-1.2,1.2
				c-0.5,0.5-1.2,0.8-1.9,0.7c0,0-0.1,0-0.1,0c-1,0-1.9,0.9-1.8,1.9c0,1,0.8,1.8,1.8,1.8C140.6,28.9,141.5,28.1,141.5,27z"/>
			<path class="st0" d="M149.3,3.8c0,0,0,0.1,0,0.1c0,0.7-0.2,1.4-0.7,1.9l-1.2,1.2c-0.5,0.5-1.2,0.8-1.9,0.7c0,0-0.1,0-0.1,0
				c-0.1,0-0.1,0-0.2,0c-0.7,0.1-1.4-0.2-1.9-0.7L142.2,6c-0.5-0.5-0.8-1.2-0.7-1.9c0-0.1,0-0.2,0-0.3c-0.1-0.9-0.8-1.7-1.7-1.7
				c-1.1-0.1-2,0.8-2,2c0.1,0.9,0.8,1.7,1.7,1.7c0.1,0,0.1,0,0.2,0c0.7,0,1.4,0.2,1.8,0.7l1.3,1.3c0.5,0.5,0.8,1.2,0.7,1.9
				c0,0,0,0.1,0,0.1c0,1,0.9,1.8,1.9,1.8c1,0,1.8-0.8,1.8-1.9c0,0,0-0.1,0-0.1c0-0.7,0.2-1.4,0.7-1.9l1.2-1.2
				c0.5-0.5,1.2-0.8,1.9-0.7c0,0,0.1,0,0.1,0c1,0,1.9-0.9,1.8-1.9c0-1-0.8-1.8-1.8-1.8C150.2,2,149.3,2.8,149.3,3.8z"/>
		</g>
		<g>
			<path class="st0" d="M31.6,9.4h-3c0-2.1-0.4-3.5-1.1-4c-0.7-0.6-2.4-0.9-5-0.9c-3.1,0-5.1,0.3-6,0.8c-0.9,0.5-1.4,1.8-1.4,3.7
				c0,2.1,0.4,3.4,1.1,3.9c0.7,0.5,2.8,0.8,6.3,0.9c4.1,0.2,6.7,0.7,7.8,1.6c1.1,0.9,1.7,2.8,1.7,5.8c0,3.2-0.6,5.3-1.9,6.3
				c-1.3,1-4.1,1.4-8.5,1.4c-3.8,0-6.3-0.5-7.6-1.4c-1.3-1-1.9-2.9-1.9-5.8l0-1.2h3v0.7c0,2.4,0.4,3.8,1.1,4.4
				c0.7,0.6,2.6,0.9,5.5,0.9c3.4,0,5.5-0.3,6.3-0.9c0.8-0.6,1.2-2.1,1.2-4.6c0-1.6-0.3-2.7-0.8-3.2c-0.5-0.5-1.7-0.9-3.4-1L22,16.6
				L19,16.5c-4.5-0.3-6.7-2.6-6.7-7c0-3,0.6-5,1.9-6S18.2,2,22.1,2c3.9,0,6.5,0.5,7.7,1.4S31.6,6.3,31.6,9.4z"/>
			<path class="st0" d="M44.8,5v23.6h-3V5h-8.6V2.3h20.1V5H44.8z"/>
			<path class="st0" d="M72.2,23H58.8l-2,5.6h-3.1l9.7-26.4h4.2l9.8,26.4h-3.1L72.2,23z M71.3,20.8L65.4,4.7l-5.8,16.1H71.3z"/>
			<path class="st0" d="M97.3,19.8h3v1c0,3.6-0.6,5.8-1.8,6.7c-1.2,0.9-4.3,1.3-9.2,1.3c-4.4,0-7.2-0.8-8.4-2.4
				c-1.2-1.6-1.8-5.3-1.8-11.1c0-4.6,0.1-7.4,0.4-8.6c0.3-1.2,1-2.2,2.3-3.2C83.2,2.5,86.4,2,91.4,2c3.4,0,5.6,0.5,6.8,1.6
				c1.2,1,1.7,3.1,1.7,6l0,0.7h-3l0-0.8c0-2.1-0.3-3.5-1-4.1c-0.7-0.6-2.2-0.9-4.7-0.9c-4.2,0-6.8,0.4-7.8,1.1
				c-0.9,0.7-1.4,2.7-1.4,5.9c0,7.4,0.3,11.7,0.9,13c0.6,1.3,2.8,1.9,6.5,1.9c3.5,0,5.7-0.3,6.6-0.8c0.9-0.6,1.3-1.9,1.3-4.2
				L97.3,19.8z"/>
			<path class="st0" d="M106.6,2.3v11.5h2.6L120,2.3h3.8l-12,12.7l13.5,13.7h-4.1l-12-12.3h-2.6v12.3h-3V2.3H106.6z"/>
		</g>
	</g>
	<path class="st1" d="M153.4,46H17.6c-3,0-5.5-2.5-5.5-5.5v0c0-3,2.5-5.5,5.5-5.5h135.7c3,0,5.5,2.5,5.5,5.5v0
		C158.9,43.5,156.4,46,153.4,46z"/>
	<text transform="matrix(1 0 0 1 120.9543 43.9527)" class="st2 st3">Cloud</text>
</g>
</svg>
