<?xml version="1.0" encoding="utf-8"?>
<!-- Generator: Adobe Illustrator 23.0.2, SVG Export Plug-In . SVG Version: 6.00 Build 0)  -->
<svg version="1.1" id="Layer_1" xmlns="http://www.w3.org/2000/svg" xmlns:xlink="http://www.w3.org/1999/xlink" x="0px" y="0px"
	 viewBox="0 0 169 48" style="enable-background:new 0 0 169 48;" xml:space="preserve">
<style type="text/css">
	.st0{fill:#0C0C0C;}
	.st1{fill:#F9A534;}
	.st2{font-family:'TitilliumWeb-Bold';}
	.st3{font-size:10px;}
</style>
<g>
	<g>
		<g>
			<path class="st0" d="M156.6,25.7C156.6,25.7,156.6,25.7,156.6,25.7c-0.6,0-1.2-0.3-1.6-0.7l-7.4-7.4c-1-1-1-2.6,0-3.6l7.5-7.5
				c0.4-0.4,1-0.7,1.6-0.7c0,0,0,0,0,0c0.9-0.1,1.6-0.9,1.7-1.8c0.1-1.1-0.9-2.1-2-2c-0.9,0.1-1.7,0.8-1.8,1.7c0,0,0,0.1,0,0.1
				c0,0.6-0.3,1.3-0.7,1.7l-7.4,7.4c-1,1-2.6,1-3.6,0l-7.4-7.4c-0.5-0.5-0.7-1.1-0.7-1.7c0,0,0-0.1,0-0.1c-0.1-0.9-0.8-1.6-1.8-1.7
				c-1.1-0.1-2.1,0.9-2,2c0.1,0.9,0.8,1.7,1.7,1.8c0,0,0,0,0,0c0.6,0.1,1.2,0.3,1.6,0.7l7.5,7.5c1,1,1,2.6,0,3.6l-7.4,7.4
				c-0.4,0.4-1,0.7-1.6,0.7c0,0,0,0,0,0c-0.9,0.1-1.7,0.8-1.7,1.8c-0.1,1.1,0.9,2.1,2,2c0.9-0.1,1.7-0.8,1.8-1.7c0,0,0-0.1,0-0.1
				c0-0.6,0.3-1.2,0.7-1.7l7.4-7.4c1-1,2.6-1,3.6,0l7.4,7.4c0.4,0.4,0.7,1.1,0.7,1.7c0,0,0,0.1,0,0.1c0.1,0.9,0.9,1.6,1.8,1.7
				c1.1,0.1,2.1-0.9,2-2C158.3,26.5,157.6,25.8,156.6,25.7z"/>
			<path class="st0" d="M156.6,19.8c0,0-0.1,0-0.1,0c-0.7,0-1.4-0.2-1.9-0.7l-1.3-1.3c-0.5-0.5-0.8-1.2-0.7-1.9c0,0,0-0.1,0-0.1
				c0-0.1,0-0.1,0-0.2c-0.1-0.7,0.2-1.4,0.7-2l1.1-1.1c0.5-0.5,1.3-0.8,2-0.7c0.1,0,0.2,0,0.3,0c0.9-0.1,1.7-0.8,1.8-1.8
				c0.1-1.1-0.9-2.1-2-2c-0.9,0.1-1.7,0.8-1.8,1.7c0,0.1,0,0.1,0,0.2c0,0.7-0.2,1.4-0.7,1.9l-1.3,1.3c-0.5,0.5-1.2,0.8-1.9,0.7
				c0,0-0.1,0-0.1,0c-1,0-1.9,0.9-1.9,1.9c0,1,0.9,1.9,1.9,1.9c0,0,0.1,0,0.1,0c0.7-0.1,1.4,0.2,2,0.7l1.2,1.2
				c0.5,0.5,0.8,1.2,0.7,2c0,0,0,0.1,0,0.1c0,1.1,0.9,1.9,1.9,1.9c1,0,1.8-0.8,1.9-1.9C158.5,20.6,157.7,19.8,156.6,19.8z"/>
			<path class="st0" d="M132.9,11.7c0,0,0.1,0,0.1,0c0.7,0,1.4,0.2,1.9,0.7l1.3,1.3c0.5,0.5,0.8,1.2,0.7,1.9c0,0,0,0.1,0,0.1
				c0,0.1,0,0.1,0,0.2c0.1,0.7-0.2,1.4-0.7,2l-1.1,1.1c-0.5,0.5-1.3,0.8-2,0.7c-0.1,0-0.2,0-0.3,0c-0.9,0.1-1.7,0.8-1.8,1.8
				c-0.1,1.1,0.9,2.1,2,2c0.9-0.1,1.7-0.8,1.8-1.7c0-0.1,0-0.1,0-0.2c0-0.7,0.2-1.4,0.7-1.9l1.3-1.3c0.5-0.5,1.2-0.8,1.9-0.7
				c0,0,0.1,0,0.1,0c1,0,1.9-0.9,1.9-1.9c0-1-0.9-1.9-1.9-1.9c0,0-0.1,0-0.1,0c-0.7,0.1-1.4-0.2-2-0.7l-1.2-1.2
				c-0.5-0.5-0.8-1.2-0.7-2c0,0,0-0.1,0-0.1c0-1.1-0.9-1.9-1.9-1.9c-1,0-1.8,0.8-1.9,1.9C131,10.8,131.8,11.7,132.9,11.7z"/>
			<path class="st0" d="M140.7,27.6c0,0,0-0.1,0-0.1c0-0.7,0.2-1.4,0.7-1.9l1.3-1.3c0.5-0.5,1.2-0.8,1.9-0.7c0,0,0.1,0,0.1,0
				c0.1,0,0.1,0,0.2,0c0.7-0.1,1.4,0.2,2,0.7l1.1,1.1c0.5,0.5,0.8,1.3,0.7,2c0,0.1,0,0.2,0,0.3c0.1,0.9,0.8,1.7,1.8,1.8
				c1.1,0.1,2.1-0.9,2-2c-0.1-0.9-0.8-1.7-1.7-1.8c-0.1,0-0.1,0-0.2,0c-0.7,0-1.4-0.2-1.9-0.7l-1.3-1.3c-0.5-0.5-0.8-1.2-0.7-1.9
				c0,0,0-0.1,0-0.1c0-1-0.9-1.9-1.9-1.9c-1,0-1.9,0.9-1.9,1.9c0,0,0,0.1,0,0.1c0.1,0.7-0.2,1.4-0.7,2l-1.2,1.2
				c-0.5,0.5-1.2,0.8-2,0.7c0,0-0.1,0-0.1,0c-1.1,0-1.9,0.9-1.9,1.9c0,1,0.8,1.8,1.9,1.9C139.8,29.5,140.7,28.7,140.7,27.6z"/>
			<path class="st0" d="M148.8,3.9c0,0,0,0.1,0,0.1c0,0.7-0.2,1.4-0.7,1.9l-1.3,1.3c-0.5,0.5-1.2,0.8-1.9,0.7c0,0-0.1,0-0.1,0
				c-0.1,0-0.1,0-0.2,0c-0.7,0.1-1.4-0.2-2-0.7l-1.1-1.1c-0.5-0.5-0.8-1.3-0.7-2c0-0.1,0-0.2,0-0.3c-0.1-0.9-0.8-1.7-1.8-1.8
				c-1.1-0.1-2.1,0.9-2,2c0.1,0.9,0.8,1.7,1.7,1.8c0.1,0,0.1,0,0.2,0c0.7,0,1.4,0.2,1.9,0.7l1.3,1.3c0.5,0.5,0.8,1.2,0.7,1.9
				c0,0,0,0.1,0,0.1c0,1,0.9,1.9,1.9,1.9c1,0,1.9-0.9,1.9-1.9c0,0,0-0.1,0-0.1c-0.1-0.7,0.2-1.4,0.7-2l1.2-1.2
				c0.5-0.5,1.2-0.8,2-0.7c0,0,0.1,0,0.1,0c1.1,0,1.9-0.9,1.9-1.9c0-1-0.8-1.8-1.9-1.9C149.7,2,148.8,2.8,148.8,3.9z"/>
		</g>
		<g>
			<path class="st0" d="M28.3,9.6h-3c0-2.2-0.4-3.6-1.1-4.1c-0.7-0.6-2.4-0.9-5.1-0.9c-3.2,0-5.2,0.3-6.2,0.8
				C12,6,11.6,7.2,11.6,9.1c0,2.2,0.4,3.5,1.1,4c0.7,0.5,2.9,0.8,6.5,1c4.2,0.2,6.9,0.7,8,1.6c1.1,0.9,1.7,2.9,1.7,5.9
				c0,3.3-0.7,5.5-2,6.4c-1.3,1-4.2,1.5-8.7,1.5c-3.9,0-6.5-0.5-7.7-1.5c-1.3-1-1.9-3-1.9-5.9l0-1.2h3v0.7c0,2.4,0.4,3.9,1.1,4.5
				c0.7,0.6,2.6,0.9,5.7,0.9c3.5,0,5.6-0.3,6.4-0.9c0.8-0.6,1.2-2.1,1.2-4.7c0-1.6-0.3-2.7-0.8-3.3c-0.5-0.5-1.7-0.9-3.4-1l-3.2-0.2
				l-3-0.2c-4.6-0.3-6.9-2.7-6.9-7.1c0-3.1,0.7-5.1,2-6.1s4-1.5,8-1.5c4,0,6.7,0.5,7.9,1.4S28.3,6.4,28.3,9.6z"/>
			<path class="st0" d="M41.9,5.1v24.1h-3V5.1h-8.8V2.3h20.5v2.8H41.9z"/>
			<path class="st0" d="M69.9,23.5H56.2l-2.1,5.7h-3.2l9.9-26.9h4.3l10.1,26.9H72L69.9,23.5z M69,21.2L63,4.8l-5.9,16.5H69z"/>
			<path class="st0" d="M95.6,20.2h3v1c0,3.7-0.6,6-1.9,6.9c-1.3,0.9-4.4,1.4-9.4,1.4c-4.5,0-7.4-0.8-8.6-2.4
				c-1.2-1.6-1.8-5.4-1.8-11.4c0-4.7,0.1-7.6,0.4-8.8c0.3-1.2,1.1-2.3,2.4-3.2C81.1,2.5,84.4,2,89.5,2c3.4,0,5.7,0.5,6.9,1.6
				c1.2,1.1,1.8,3.1,1.8,6.2l0,0.7h-3l0-0.8c0-2.2-0.4-3.6-1.1-4.2c-0.7-0.6-2.3-0.9-4.8-0.9c-4.3,0-7,0.4-8,1.1
				c-1,0.7-1.4,2.7-1.4,6c0,7.6,0.3,12,1,13.3c0.6,1.3,2.8,2,6.6,2c3.6,0,5.8-0.3,6.7-0.8c0.9-0.6,1.3-2,1.3-4.3L95.6,20.2z"/>
			<path class="st0" d="M105.1,2.3V14h2.7l11.1-11.8h3.9l-12.3,13l13.8,14H120l-12.3-12.6h-2.7v12.6h-3V2.3H105.1z"/>
		</g>
	</g>
	<path class="st1" d="M155.9,47H11.2c-1.5,0-2.7-1.2-2.7-2.7v-5.9c0-1.5,1.2-2.7,2.7-2.7h144.7c1.5,0,2.7,1.2,2.7,2.7v5.9
		C158.5,45.8,157.3,47,155.9,47z"/>
	<text transform="matrix(1 0 0 1 119.752 44.8955)" class="st2 st3">Cloud</text>
</g>
</svg>
