<?xml version="1.0" encoding="utf-8"?>
<!-- Generator: Adobe Illustrator 23.0.2, SVG Export Plug-In . SVG Version: 6.00 Build 0)  -->
<svg version="1.1" id="Layer_1" xmlns="http://www.w3.org/2000/svg" xmlns:xlink="http://www.w3.org/1999/xlink" x="0px" y="0px"
	 viewBox="0 0 169 48" style="enable-background:new 0 0 169 48;" xml:space="preserve">
<style type="text/css">
	.st0{fill:#FFFFFF;}
	.st1{fill:#F9A534;}
	.st2{font-family:'TitilliumWeb-Bold';}
	.st3{font-size:9.3455px;}
</style>
<g>
	<g>
		<g>
			<path class="st0" d="M155.1,26.5C155.1,26.5,155.1,26.5,155.1,26.5c-0.6,0-1.1-0.3-1.5-0.7l-6.9-6.9c-0.9-0.9-0.9-2.4,0-3.3l7-7
				c0.4-0.4,0.9-0.6,1.5-0.7c0,0,0,0,0,0c0.9-0.1,1.5-0.8,1.6-1.7c0.1-1.1-0.8-1.9-1.9-1.9c-0.9,0.1-1.6,0.7-1.6,1.6
				c0,0,0,0.1,0,0.1c0,0.6-0.3,1.2-0.7,1.6l-6.9,6.9c-0.9,0.9-2.4,0.9-3.3,0l-6.9-6.9c-0.4-0.4-0.7-1-0.7-1.6c0,0,0-0.1,0-0.1
				c-0.1-0.9-0.8-1.5-1.6-1.6c-1.1-0.1-1.9,0.8-1.9,1.9c0,0.9,0.7,1.6,1.6,1.7c0,0,0,0,0,0c0.6,0.1,1.1,0.3,1.5,0.7l7,7
				c0.9,0.9,0.9,2.4,0,3.3l-6.9,6.9c-0.4,0.4-0.9,0.6-1.5,0.7c0,0,0,0,0,0c-0.9,0.1-1.6,0.8-1.6,1.6c-0.1,1.1,0.8,1.9,1.9,1.9
				c0.9,0,1.6-0.7,1.7-1.6c0,0,0-0.1,0-0.1c0-0.6,0.3-1.2,0.7-1.6l6.9-6.9c0.9-0.9,2.4-0.9,3.3,0l6.9,6.9c0.4,0.4,0.7,1,0.7,1.6
				c0,0,0,0.1,0,0.1c0.1,0.8,0.8,1.5,1.7,1.6c1.1,0.1,1.9-0.8,1.9-1.9C156.7,27.3,156,26.5,155.1,26.5z"/>
			<path class="st0" d="M155.1,20.9c0,0-0.1,0-0.1,0c-0.7,0-1.3-0.2-1.8-0.7L152,19c-0.5-0.5-0.7-1.1-0.7-1.8c0,0,0-0.1,0-0.1
				c0-0.1,0-0.1,0-0.2c-0.1-0.7,0.2-1.3,0.7-1.8l1.1-1.1c0.5-0.5,1.2-0.8,1.9-0.7c0.1,0,0.2,0,0.3,0c0.9-0.1,1.6-0.8,1.6-1.7
				c0.1-1.1-0.8-1.9-1.9-1.9c-0.9,0.1-1.6,0.8-1.7,1.6c0,0.1,0,0.1,0,0.2c0,0.7-0.2,1.3-0.7,1.8l-1.2,1.2c-0.5,0.5-1.1,0.7-1.8,0.7
				c0,0-0.1,0-0.1,0c-1,0-1.7,0.8-1.7,1.8c0,1,0.8,1.7,1.8,1.7c0,0,0.1,0,0.1,0c0.7,0,1.3,0.2,1.8,0.7l1.1,1.1
				c0.5,0.5,0.7,1.2,0.7,1.8c0,0,0,0.1,0,0.1c0,1,0.8,1.8,1.8,1.8c0.9,0,1.7-0.8,1.7-1.7C156.9,21.7,156.1,20.9,155.1,20.9z"/>
			<path class="st0" d="M132.9,13.4c0,0,0.1,0,0.1,0c0.7,0,1.3,0.2,1.8,0.7l1.2,1.2c0.5,0.5,0.7,1.1,0.7,1.8c0,0,0,0.1,0,0.1
				c0,0.1,0,0.1,0,0.2c0.1,0.7-0.2,1.3-0.7,1.8l-1.1,1.1c-0.5,0.5-1.2,0.8-1.9,0.7c-0.1,0-0.2,0-0.3,0c-0.9,0.1-1.6,0.8-1.6,1.7
				c-0.1,1.1,0.8,1.9,1.9,1.9c0.9-0.1,1.6-0.8,1.7-1.6c0-0.1,0-0.1,0-0.2c0-0.7,0.2-1.3,0.7-1.8l1.2-1.2c0.5-0.5,1.1-0.7,1.8-0.7
				c0,0,0.1,0,0.1,0c1,0,1.7-0.8,1.7-1.8c0-1-0.8-1.7-1.8-1.7c0,0-0.1,0-0.1,0c-0.7,0-1.3-0.2-1.8-0.7l-1.1-1.1
				c-0.5-0.5-0.7-1.2-0.7-1.8c0,0,0-0.1,0-0.1c0-1-0.8-1.8-1.8-1.8c-0.9,0-1.7,0.8-1.7,1.7C131.1,12.6,131.9,13.4,132.9,13.4z"/>
			<path class="st0" d="M140.2,28.2c0,0,0-0.1,0-0.1c0-0.7,0.2-1.3,0.7-1.8l1.2-1.2c0.5-0.5,1.1-0.7,1.8-0.7c0,0,0.1,0,0.1,0
				c0.1,0,0.1,0,0.2,0c0.7-0.1,1.3,0.2,1.8,0.7l1.1,1.1c0.5,0.5,0.8,1.2,0.7,1.9c0,0.1,0,0.2,0,0.3c0.1,0.9,0.8,1.6,1.7,1.6
				c1.1,0.1,1.9-0.8,1.9-1.9c-0.1-0.9-0.8-1.6-1.6-1.7c-0.1,0-0.1,0-0.2,0c-0.7,0-1.3-0.2-1.8-0.7l-1.2-1.2
				c-0.5-0.5-0.7-1.1-0.7-1.8c0,0,0-0.1,0-0.1c0-1-0.8-1.7-1.8-1.7c-1,0-1.7,0.8-1.7,1.8c0,0,0,0.1,0,0.1c0,0.7-0.2,1.3-0.7,1.8
				l-1.1,1.1c-0.5,0.5-1.2,0.7-1.8,0.7c0,0-0.1,0-0.1,0c-1,0-1.8,0.8-1.8,1.8c0,0.9,0.8,1.7,1.7,1.7C139.4,30,140.2,29.2,140.2,28.2
				z"/>
			<path class="st0" d="M147.7,6.1c0,0,0,0.1,0,0.1c0,0.7-0.2,1.3-0.7,1.8l-1.2,1.2c-0.5,0.5-1.1,0.7-1.8,0.7c0,0-0.1,0-0.1,0
				c-0.1,0-0.1,0-0.2,0c-0.7,0.1-1.3-0.2-1.8-0.7l-1.1-1.1c-0.5-0.5-0.8-1.2-0.7-1.9c0-0.1,0-0.2,0-0.3c-0.1-0.9-0.8-1.6-1.7-1.6
				c-1.1-0.1-1.9,0.8-1.9,1.9c0.1,0.9,0.8,1.6,1.6,1.7c0.1,0,0.1,0,0.2,0c0.7,0,1.3,0.2,1.8,0.7l1.2,1.2c0.5,0.5,0.7,1.1,0.7,1.8
				c0,0,0,0.1,0,0.1c0,1,0.8,1.7,1.8,1.7c1,0,1.7-0.8,1.7-1.8c0,0,0-0.1,0-0.1c0-0.7,0.2-1.3,0.7-1.8l1.1-1.1
				c0.5-0.5,1.2-0.7,1.8-0.7c0,0,0.1,0,0.1,0c1,0,1.8-0.8,1.8-1.8c0-0.9-0.8-1.7-1.7-1.7C148.6,4.3,147.8,5.1,147.7,6.1z"/>
		</g>
		<g>
			<path class="st0" d="M35.2,11.4h-2.8c0-2-0.3-3.3-1-3.9c-0.7-0.5-2.3-0.8-4.8-0.8c-3,0-4.9,0.3-5.8,0.8C20,8,19.5,9.2,19.5,11
				c0,2,0.3,3.3,1,3.7c0.7,0.4,2.7,0.7,6,0.9c3.9,0.2,6.4,0.7,7.5,1.5c1.1,0.8,1.6,2.7,1.6,5.5c0,3.1-0.6,5.1-1.8,6
				c-1.2,0.9-3.9,1.4-8.1,1.4c-3.6,0-6-0.5-7.2-1.4c-1.2-0.9-1.8-2.8-1.8-5.5l0-1.1h2.8v0.6c0,2.3,0.3,3.7,1,4.2
				c0.7,0.5,2.5,0.8,5.3,0.8c3.3,0,5.3-0.3,6-0.8c0.8-0.5,1.1-2,1.1-4.4c0-1.5-0.3-2.6-0.8-3.1c-0.5-0.5-1.6-0.8-3.2-0.9l-3-0.1
				l-2.8-0.1c-4.3-0.3-6.4-2.5-6.4-6.6c0-2.9,0.6-4.8,1.9-5.7s3.7-1.4,7.4-1.4c3.8,0,6.2,0.4,7.4,1.3S35.2,8.5,35.2,11.4z"/>
			<path class="st0" d="M47.9,7.2v22.5H45V7.2h-8.2V4.6H56v2.6H47.9z"/>
			<path class="st0" d="M74,24.4H61.3l-1.9,5.3h-3l9.2-25.2h4l9.4,25.2h-3L74,24.4z M73.2,22.3L67.6,6.9l-5.5,15.4H73.2z"/>
			<path class="st0" d="M98,21.3h2.8v1c0,3.4-0.6,5.6-1.8,6.4C97.9,29.6,95,30,90.3,30c-4.2,0-6.9-0.8-8-2.3
				c-1.1-1.5-1.7-5.1-1.7-10.6c0-4.4,0.1-7.1,0.4-8.2c0.3-1.1,1-2.1,2.2-3c1.4-1,4.5-1.5,9.2-1.5c3.2,0,5.4,0.5,6.5,1.5
				c1.1,1,1.7,2.9,1.7,5.8l0,0.7h-2.8l0-0.8c0-2-0.3-3.3-1-3.9c-0.7-0.6-2.1-0.9-4.5-0.9c-4.1,0-6.5,0.3-7.4,1
				c-0.9,0.7-1.3,2.6-1.3,5.6c0,7.1,0.3,11.2,0.9,12.4c0.6,1.2,2.7,1.8,6.2,1.8c3.3,0,5.4-0.3,6.3-0.8c0.8-0.5,1.2-1.9,1.2-4
				L98,21.3z"/>
			<path class="st0" d="M106.9,4.6v11h2.5l10.3-11h3.7l-11.5,12.1l12.9,13h-3.9L109.4,18h-2.5v11.8h-2.8V4.6H106.9z"/>
		</g>
	</g>
	<path class="st1" d="M154.2,46.4H19.3c-1.5,0-2.7-1.2-2.7-2.7v-5.2c0-1.5,1.2-2.7,2.7-2.7h134.9c1.5,0,2.7,1.2,2.7,2.7v5.2
		C156.8,45.2,155.7,46.4,154.2,46.4z"/>
	<text transform="matrix(1 0 0 1 120.6357 44.4004)" class="st2 st3">Cloud</text>
</g>
</svg>
